<svg width="83" height="83" viewBox="0 0 83 83" fill="none" xmlns="http://www.w3.org/2000/svg">
<path fill-rule="evenodd" clip-rule="evenodd" d="M8.36456 66.489C16.3118 57.0642 28.2068 51.0771 41.5001 51.0771C54.7938 51.0771 66.689 57.0645 74.6363 66.4896C67.0609 76.5186 55.0377 83.0001 41.5007 83.0001C27.9633 83.0001 15.9399 76.5183 8.36456 66.489Z" fill="#36B93F"/>
<circle cx="41.8638" cy="30.9439" r="13.4693" fill="#36B93F"/>
<path d="M80.4518 41.5C80.4518 63.0125 63.0125 80.4518 41.5 80.4518C19.9875 80.4518 2.54825 63.0125 2.54825 41.5C2.54825 19.9875 19.9875 2.54825 41.5 2.54825C63.0125 2.54825 80.4518 19.9875 80.4518 41.5Z" stroke="#36B93F" stroke-width="5.09649"/>
<path d="M80.4518 41.5C80.4518 63.0125 63.0125 80.4518 41.5 80.4518C19.9875 80.4518 2.54825 63.0125 2.54825 41.5C2.54825 19.9875 19.9875 2.54825 41.5 2.54825C63.0125 2.54825 80.4518 19.9875 80.4518 41.5Z" stroke="#36B93F" stroke-width="5.09649"/>
</svg>
